# Blender v2.76 (sub 0) OBJ File: 'enemy.blend'
# www.blender.org
mtllib enemy.mtl
o Cube
v 1.000000 0.789019 -1.000000
v 2.604698 1.115708 -2.283245
v -2.604698 -1.115708 -2.283245
v 2.604698 -1.115708 -2.283245
v -2.604698 1.115708 -2.283245
v 1.000000 -0.789019 -1.000000
v -0.000000 -0.789019 1.000000
v -1.000000 0.789019 -1.000000
v -1.000000 0.000000 1.000000
v 1.000000 0.000000 -1.000000
v -1.000000 0.000000 -1.000000
v -1.000000 -0.789019 -1.000000
v 0.000000 -0.789019 -1.000000
v 1.000000 0.000000 1.000000
v -0.000000 0.789019 1.000000
v -0.000000 0.000000 3.288691
v 0.000000 0.789019 -1.000000
v 0.000000 0.000000 -0.486849
vt 0.853460 0.901580
vt 0.810072 0.870137
vt 0.853460 0.697496
vt 0.534920 0.221631
vt 0.398886 0.219257
vt 0.454776 0.153506
vt 0.022178 0.414115
vt 0.087774 0.475258
vt 0.063542 0.501003
vt 0.374632 0.085382
vt 0.510665 0.087756
vt 0.035022 0.596682
vt 0.095382 0.531926
vt 0.498754 0.504202
vt 0.371145 0.379550
vt 0.626363 0.373566
vt 0.275871 0.972224
vt 0.274692 0.713316
vt 0.357102 0.740466
vt 0.371145 0.634839
vt 0.223585 0.729251
vt 0.261965 0.989890
vt 0.124363 0.967945
vt 0.626363 0.628854
vt 0.705967 0.537817
vt 0.706403 0.453689
vt 0.811562 0.540016
vt 0.109989 0.957532
vt -0.001995 0.711512
vt 0.129286 0.698589
vt 0.206035 0.727927
vt 0.916775 0.453755
vt 0.811616 0.367428
vt 0.917211 0.369627
vt 0.111754 0.449279
vt 0.696908 0.972468
vt 0.655774 0.798453
vt 0.603372 0.790590
vt 0.218040 0.596682
vt 0.152444 0.535538
vt 0.176676 0.509794
vt 0.890715 0.902229
vt 0.718074 0.945616
vt 0.686631 0.902229
vt 0.729903 0.985626
vt 0.144836 0.478871
vt 0.205196 0.414115
vt 0.769850 0.697496
vt 0.726846 0.728454
vt 0.769850 0.902016
vt 0.128464 0.561517
vt 0.686631 0.740198
vt 0.770063 0.858308
vt 0.946768 0.946766
vt 0.916567 0.947544
vt 0.938139 0.818158
vt 0.696908 0.790505
vt 0.866387 0.717188
vt 0.905493 0.882623
vt 0.905493 0.709631
vt 0.917158 0.537883
vt 0.706020 0.369561
vn -0.538300 0.682200 -0.494900
vn 0.395200 0.500800 0.770100
vn 1.000000 -0.000000 0.000000
vn -0.395200 0.500800 0.770100
vn -0.395200 -0.500800 0.770100
vn 0.000000 -1.000000 0.000000
vn 0.597900 0.757800 -0.261200
vn -0.597900 0.757800 -0.261200
vn 0.395200 -0.500800 0.770100
vn 0.597900 -0.757800 -0.261200
vn -0.000000 0.000000 1.000000
vn -0.597900 -0.757800 -0.261200
vn 0.538300 0.682200 -0.494900
vn -1.000000 0.000000 0.000000
vn -0.538300 -0.682200 -0.494900
vn 0.103500 0.925200 0.365000
vn 0.000000 1.000000 0.000000
vn 0.538300 -0.682200 -0.494900
vn 0.317200 -0.935000 0.158600
vn -0.103500 0.925200 0.365000
vn -0.317200 -0.935000 0.158600
vn 0.103500 -0.925200 0.365000
vn 0.317200 0.935000 0.158600
vn -0.103500 -0.925200 0.365000
vn -0.317200 0.935000 0.158600
usemtl Material
s off
f 14/1/1 4/2/1 7/3/1
f 10/4/2 17/5/2 18/6/2
f 9/7/3 11/8/3 8/9/3
f 17/5/4 11/10/4 18/6/4
f 11/10/5 13/11/5 18/6/5
f 15/12/6 8/9/6 17/13/6
f 16/14/7 7/15/7 9/16/7
f 16/17/7 7/18/7 9/19/7
f 16/14/8 14/20/8 7/15/8
f 16/21/8 14/22/8 7/23/8
f 18/6/9 13/11/9 10/4/9
f 16/14/10 9/16/10 15/24/10
f 8/25/11 11/26/11 17/27/11
f 16/28/10 9/29/10 15/30/10
f 16/14/12 15/24/12 14/20/12
f 16/28/12 15/30/12 14/31/12
f 10/32/11 13/33/11 6/34/11
f 11/8/3 9/7/3 12/35/3
f 7/36/13 3/37/13 9/38/13
f 14/39/14 10/40/14 6/41/14
f 15/42/15 2/43/15 14/44/15
f 1/45/16 14/44/16 2/43/16
f 13/46/17 12/35/17 7/47/17
f 9/48/18 5/49/18 15/50/18
f 2/43/19 15/42/19 1/45/19
f 17/13/6 1/51/6 15/12/6
f 8/52/20 5/49/20 9/48/20
f 7/47/17 6/41/17 13/46/17
f 5/49/21 8/52/21 15/50/21
f 10/40/14 14/39/14 1/51/14
f 6/53/22 4/2/22 14/1/22
f 4/54/23 6/55/23 7/56/23
f 12/57/24 9/38/24 3/37/24
f 3/58/25 7/59/25 12/60/25
f 1/61/11 17/27/11 10/32/11
f 12/62/11 13/33/11 11/26/11
texture EnemyPaint.png