# Blender v2.76 (sub 0) OBJ File: ''
# www.blender.org
mtllib laser.mtl
o Cube
v 0.259007 -0.126049 -0.259007
v 0.259007 -0.126049 0.259007
v -0.259007 -0.126049 0.259007
v -0.259007 -0.126049 -0.259007
v -0.259007 -0.126049 -0.259007
v -0.259007 -0.126049 0.259007
v 0.259007 -0.126049 0.259007
v 0.259007 -0.126049 -0.259007
v 0.000000 0.391965 -0.259007
v 0.000000 0.391965 0.259007
v 0.000000 -0.126049 -0.259007
v 0.000000 -0.126049 0.259007
v 0.259007 -0.126049 0.259007
v 0.259007 -0.126049 -0.259007
v -0.259007 -0.126049 -0.259007
v -0.259007 -0.126049 0.259007
v 0.259007 0.391965 0.000000
v -0.259007 0.391965 0.000000
v 0.259007 -0.126049 0.000000
v -0.259007 -0.126049 0.000000
v -0.259007 -0.126049 0.259007
v -0.259007 -0.126049 -0.259007
v 0.259007 -0.126049 -0.259007
v 0.259007 -0.126049 0.259007
v -0.259007 0.391965 0.000000
v 0.000000 0.391965 0.259007
v 0.000000 0.391965 -0.259007
v 0.259007 0.391965 0.000000
v 0.000000 0.752075 0.000000
v -0.259007 -0.126049 0.000000
v 0.000000 -0.126049 0.259007
v 0.000000 -0.126049 -0.259007
v 0.259007 -0.126049 0.000000
v 0.000000 0.018785 0.000000
vt 0.000285 0.787970
vt 0.011224 0.697449
vt 0.101745 0.708387
vt 0.753913 0.606912
vt 0.652195 0.725396
vt 0.630123 0.570806
vt 0.848867 0.163393
vt 0.971198 0.000285
vt 0.971198 0.204170
vt 0.501174 0.570806
vt 0.385121 0.403174
vt 0.565648 0.377384
vt 0.565648 0.713032
vt 0.479102 0.725396
vt 0.377384 0.606912
vt 0.746176 0.403174
vt 0.203206 0.787970
vt 0.101746 0.812855
vt 0.101746 0.917893
vt 0.101746 0.813425
vt 0.203206 0.838310
vt 0.011224 0.928832
vt 0.000285 0.838310
vt 0.682336 0.830433
vt 0.591814 0.841372
vt 0.580875 0.750851
vt 0.124075 0.542289
vt 0.102003 0.696878
vt 0.000285 0.578395
vt 0.848297 0.204170
vt 0.742156 0.318709
vt 0.725966 0.163393
vt 0.253024 0.542289
vt 0.188549 0.348867
vt 0.369077 0.374656
vt 0.188549 0.684515
vt 0.376814 0.578395
vt 0.008022 0.374656
vt 0.783796 0.750851
vt 0.772858 0.841372
vt 0.580305 0.816487
vt 0.478845 0.841372
vt 0.478845 0.736905
vt 0.377384 0.816487
vt 0.124075 0.193707
vt 0.102003 0.348297
vt 0.000285 0.229813
vt 0.876814 0.581269
vt 0.770673 0.695808
vt 0.754483 0.540492
vt 0.253024 0.193707
vt 0.188549 0.000285
vt 0.369077 0.026075
vt 0.188550 0.335933
vt 0.376814 0.229813
vt 0.008022 0.026075
vt 0.495868 0.376814
vt 0.377384 0.275096
vt 0.531973 0.253024
vt 0.877384 0.540492
vt 0.999715 0.377384
vt 0.999715 0.581269
vt 0.531973 0.124075
vt 0.699606 0.008022
vt 0.725396 0.188549
vt 0.389748 0.188550
vt 0.377384 0.102003
vt 0.495868 0.000285
vt 0.699606 0.369077
vt 0.865057 0.318709
vt 0.192267 0.697448
vt 0.192267 0.928832
vt 0.682336 0.725966
vt 0.848297 0.000285
vt 0.275096 0.696878
vt 0.569366 0.725966
vt 0.388323 0.725966
vt 0.876814 0.377384
vt 0.275096 0.348297
vt 0.893574 0.695808
vn 0.000000 -1.000000 0.000000
vn 0.630300 0.453300 -0.630300
vn -0.666700 0.333300 -0.666700
vn -0.000000 -0.000000 1.000000
vn 0.630300 0.453300 0.630300
vn -0.630300 0.453300 0.630300
vn 1.000000 0.000000 0.000000
vn 0.438600 -0.784400 0.438600
vn -0.438600 -0.784400 0.438600
vn -0.630300 0.453300 -0.630300
vn 0.666700 0.333300 0.666700
vn -1.000000 0.000000 0.000000
vn 0.438600 -0.784400 -0.438600
vn -0.000000 -0.000000 -1.000000
vn 0.666700 0.333300 -0.666700
vn -0.666700 0.333300 0.666700
vn -0.438600 -0.784400 -0.438600
usemtl Material
s off
f 12/1/1 3/2/1 20/3/1
f 9/4/2 29/5/2 17/6/2
f 9/7/3 4/8/3 18/9/3
f 10/10/4 3/11/4 2/12/4
f 17/6/5 29/13/5 10/10/5
f 10/10/6 29/14/6 18/15/6
f 1/16/7 17/6/7 2/12/7
f 11/17/8 34/18/8 20/3/8
f 19/19/9 34/20/9 11/21/9
f 19/19/1 2/22/1 12/23/1
f 33/24/1 7/25/1 12/26/1
f 25/27/10 29/28/10 9/29/10
f 9/30/2 29/31/2 28/32/2
f 10/33/4 6/34/4 7/35/4
f 10/33/6 29/36/6 25/27/6
f 10/33/11 7/35/11 28/37/11
f 5/38/12 6/34/12 25/27/12
f 11/39/1 8/40/1 33/24/1
f 11/41/8 34/42/8 30/43/8
f 30/43/13 34/42/13 12/44/13
f 17/45/5 29/46/5 26/47/5
f 26/48/6 29/49/6 18/50/6
f 27/51/14 14/52/14 15/53/14
f 27/51/2 29/54/2 17/45/2
f 27/51/3 15/53/3 18/55/3
f 13/56/7 14/52/7 17/45/7
f 26/57/6 29/58/6 25/59/6
f 26/60/11 24/61/11 28/62/11
f 27/63/14 23/64/14 22/65/14
f 25/59/10 29/66/10 27/63/10
f 27/63/2 29/67/2 28/68/2
f 21/69/12 25/59/12 22/65/12
f 34/18/13 12/1/13 20/3/13
f 1/16/15 9/4/15 17/6/15
f 29/70/10 9/7/10 18/9/10
f 2/12/11 17/6/11 10/10/11
f 3/11/16 10/10/16 18/15/16
f 4/71/1 11/17/1 20/3/1
f 1/72/1 19/19/1 11/21/1
f 34/20/17 19/19/17 12/23/17
f 34/73/17 33/24/17 12/26/17
f 5/38/3 25/27/3 9/29/3
f 8/74/15 9/30/15 28/32/15
f 6/34/16 10/33/16 25/27/16
f 29/75/5 10/33/5 28/37/5
f 34/73/9 11/39/9 33/24/9
f 5/76/1 11/41/1 30/43/1
f 6/77/1 30/43/1 12/44/1
f 13/56/11 17/45/11 26/47/11
f 16/78/16 26/48/16 18/50/16
f 14/52/15 27/51/15 17/45/15
f 29/79/10 27/51/10 18/55/10
f 21/69/16 26/57/16 25/59/16
f 29/80/5 26/60/5 28/62/5
f 22/65/3 25/59/3 27/63/3
f 23/64/15 27/63/15 28/68/15
l 19 14
l 31 16
l 32 15
l 20 16
l 13 19
l 13 31
l 14 32
l 15 20
l 34 31
l 32 34
l 30 22
l 31 24
l 32 23
l 33 24
l 21 30
l 21 31
l 22 32
l 23 33
texture LaserPaint.png
