# Blender v2.76 (sub 0) OBJ File: 'Obstacle.blend'
# www.blender.org
mtllib Obstacle.mtl
o Cube
v 3.750350 -4.477998 -2.730408
v -1.000000 0.000000 1.000000
v -3.750350 4.477998 -2.730408
v 3.750350 4.477998 -2.730408
v 0.000000 1.000000 -1.000000
v -3.750350 4.477998 2.730408
v 3.750350 4.477998 2.730408
v 0.000000 -1.000000 -1.000000
v -1.000000 1.000000 0.000000
v -1.000000 0.000000 -1.000000
v -3.750350 -4.477998 2.730408
v -1.000000 -1.000000 0.000000
v 1.000000 0.000000 0.000000
v 0.000000 1.000000 1.000000
v -1.000000 0.000000 0.000000
v 0.000000 1.000000 0.000000
v 1.000000 0.000000 -1.000000
v 1.000000 1.000000 0.000000
v 0.000000 -1.000000 1.000000
v 3.750350 -4.477998 2.730408
v 1.000000 0.000000 1.000000
v 1.000000 -1.000000 0.000000
v -3.750350 -4.477998 -2.730408
v 0.000000 -1.000000 0.000000
vt 0.173273 0.401723
vt 0.173273 0.387143
vt 0.187680 0.387143
vt 0.609563 0.632250
vt 0.734527 0.583381
vt 0.637469 0.660491
vt 0.753106 0.048869
vt 0.878070 0.000000
vt 0.781012 0.077110
vt 0.562581 0.070203
vt 0.550279 0.070203
vt 0.550279 0.057754
vt 0.310156 0.789709
vt 0.344247 0.938064
vt 0.304782 0.938064
vt 0.698957 0.797330
vt 0.698957 0.770729
vt 0.725030 0.774109
vt 0.115133 0.980334
vt 0.077209 0.841181
vt 0.115133 0.830809
vt 0.753106 0.259572
vt 0.753106 0.231331
vt 0.781012 0.231331
vt 0.094597 0.372562
vt 0.094597 0.387143
vt 0.080190 0.387143
vt 0.995808 0.737601
vt 0.995808 0.876727
vt 0.956372 0.875165
vt 0.788350 0.744127
vt 0.877744 0.737601
vt 0.814423 0.774109
vt 0.470802 0.070203
vt 0.483104 0.070203
vt 0.483104 0.082652
vt 0.956372 0.882300
vt 0.917183 0.740372
vt 0.956372 0.737601
vt 0.304782 0.740840
vt 0.304782 0.712599
vt 0.332688 0.712599
vt 0.228586 0.542432
vt 0.228586 0.570673
vt 0.200680 0.570673
vt 0.950572 0.308441
vt 0.960535 0.452788
vt 0.921250 0.452788
vt 0.714586 0.203191
vt 0.723592 0.227244
vt 0.709700 0.207543
vt 0.048289 0.570673
vt 0.076195 0.570673
vt 0.076195 0.598915
vt 0.962072 0.000000
vt 0.996164 0.139019
vt 0.956698 0.139019
vt 0.510012 0.529574
vt 0.495847 0.529574
vt 0.495847 0.515239
vt 0.288476 0.860875
vt 0.249928 0.716527
vt 0.289213 0.716527
vt 0.690360 0.155383
vt 0.699188 0.155383
vt 0.698066 0.164244
vt 0.418497 0.543908
vt 0.418497 0.529574
vt 0.432662 0.529574
vt 0.917509 0.148455
vt 0.917509 0.296910
vt 0.878070 0.295447
vt 0.881784 0.452788
vt 0.881784 0.492728
vt 0.842500 0.492728
vt 0.249928 0.676588
vt 0.304782 0.252929
vt 0.152391 0.252929
vt 0.152391 0.000000
vt 0.000000 0.000000
vt 0.304782 0.423659
vt 0.304782 0.211830
vt 0.457172 0.211830
vt 0.457172 0.423659
vt 0.609563 0.211830
vt 0.753106 0.077110
vt 0.583867 0.023515
vt 0.788350 0.882868
vt 0.212611 0.441824
vt 0.878070 0.308441
vt 0.055259 0.332461
vt 0.788350 0.770729
vt 0.449516 0.116892
vt 0.429746 0.789709
vt 0.152391 0.464759
vt 0.710251 0.203191
vt 0.000000 0.676588
vt 0.429746 0.712599
vt 0.429746 0.684358
vt 0.457652 0.712599
vt 0.534522 0.475814
vt 0.678147 0.204363
vt 0.457172 0.583334
vt 0.842500 0.452788
vt 0.289213 0.676588
vt 0.304782 0.000000
vt 0.000000 0.252929
vt 0.609563 0.423659
vn 0.000000 1.000000 0.000000
vn 0.847400 0.375400 -0.375400
vn 0.847400 -0.375400 0.375400
vn -0.226700 -0.226700 -0.947200
vn -1.000000 0.000000 0.000000
vn 0.226700 -0.226700 -0.947200
vn 1.000000 0.000000 -0.000000
vn -0.226700 -0.226700 0.947200
vn -0.847400 -0.375400 -0.375400
vn 0.226700 -0.226700 0.947200
vn 0.000000 -1.000000 0.000000
vn -0.226700 0.226700 -0.947200
vn -0.847400 0.375400 0.375400
vn 0.226700 0.226700 -0.947200
vn -0.226700 0.226700 0.947200
vn 0.226700 0.226700 0.947200
vn 0.000000 0.000000 -1.000000
vn 0.000000 0.000000 1.000000
vn -0.472300 0.744200 0.472300
vn -0.847400 -0.375400 0.375400
vn 0.472300 0.744200 0.472300
vn 0.847400 -0.375400 -0.375400
vn -0.472300 0.744200 -0.472300
vn 0.472300 0.744200 -0.472300
vn 0.847400 0.375400 0.375400
vn -0.472300 -0.744200 0.472300
vn 0.472300 -0.744200 0.472300
vn -0.472300 -0.744200 -0.472300
vn -0.847400 0.375400 -0.375400
vn 0.472300 -0.744200 -0.472300
usemtl Material
s off
f 9/1/1 16/2/1 5/3/1
f 21/4/2 20/5/2 22/6/2
f 17/7/3 4/8/3 18/9/3
f 5/10/1 16/11/1 18/12/1
f 4/13/4 17/14/4 5/15/4
f 10/16/5 15/17/5 9/18/5
f 3/19/6 5/20/6 10/21/6
f 21/22/7 13/23/7 18/24/7
f 18/25/1 16/26/1 14/27/1
f 7/28/8 14/29/8 21/30/8
f 2/31/9 6/32/9 9/33/9
f 14/34/1 16/35/1 9/36/1
f 6/37/10 2/38/10 14/39/10
f 17/40/7 13/41/7 22/42/7
f 22/43/11 24/44/11 8/45/11
f 1/46/12 8/47/12 17/48/12
f 10/49/13 23/50/13 12/51/13
f 8/52/11 24/53/11 12/54/11
f 23/55/14 10/56/14 8/57/14
f 19/58/11 24/59/11 22/60/11
f 20/61/15 21/62/15 19/63/15
f 2/64/5 15/65/5 12/66/5
f 12/67/11 24/68/11 19/69/11
f 11/70/16 19/71/16 2/72/16
f 8/73/17 10/74/17 5/75/17
f 19/63/18 21/62/18 14/76/18
f 3/77/7 6/78/7 11/79/7
f 4/80/7 7/79/7 20/78/7
f 11/81/1 20/82/1 1/83/1
f 3/84/11 4/83/11 7/85/11
f 13/86/7 17/7/7 18/9/7
f 4/87/19 5/10/19 18/12/19
f 3/88/20 10/16/20 9/18/20
f 3/89/21 9/1/21 5/3/21
f 7/90/22 21/22/22 18/24/22
f 7/91/23 18/25/23 14/27/23
f 15/92/5 2/31/5 9/33/5
f 6/93/24 14/34/24 9/36/24
f 1/94/25 17/40/25 22/42/25
f 1/95/26 22/43/26 8/45/26
f 15/96/5 10/49/5 12/51/5
f 23/97/27 8/52/27 12/54/27
f 13/98/7 21/99/7 22/100/7
f 20/101/28 19/58/28 22/60/28
f 11/102/29 2/64/29 12/66/29
f 11/103/30 12/67/30 19/69/30
f 17/104/17 8/73/17 5/75/17
f 2/105/18 19/63/18 14/76/18
f 23/106/7 3/77/7 11/79/7
f 1/107/7 4/80/7 20/78/7
f 23/84/1 11/81/1 1/83/1
f 6/108/11 3/84/11 7/85/11
texture Obstacle.png
