# Blender v2.76 (sub 0) OBJ File: 'Sheild.blend'
# www.blender.org
mtllib Sheild.mtl
o Sphere
v -0.382683 0.923880 0.000000
v -0.707107 0.707107 0.000000
v -0.923880 0.382683 0.000000
v -1.000000 -0.000000 0.000000
v -0.923880 -0.382684 0.000000
v -0.707107 -0.707107 0.000000
v -0.382683 -0.923880 0.000000
v -0.270598 0.923880 -0.270598
v -0.500000 0.707107 -0.500000
v -0.653282 0.382683 -0.653281
v -0.707107 -0.000000 -0.707107
v -0.653282 -0.382684 -0.653281
v -0.500000 -0.707107 -0.500000
v -0.270598 -0.923880 -0.270598
v -0.000000 0.923880 -0.382683
v -0.000000 0.707107 -0.707107
v -0.000000 0.382683 -0.923879
v -0.000000 -0.000000 -1.000000
v -0.000000 -0.382684 -0.923879
v -0.000000 -0.707107 -0.707107
v -0.000000 -0.923880 -0.382683
v -0.000000 1.000000 0.000000
v 0.270598 0.923880 -0.270598
v 0.500000 0.707107 -0.500000
v 0.653281 0.382683 -0.653281
v 0.707106 -0.000000 -0.707107
v 0.653281 -0.382684 -0.653281
v 0.500000 -0.707107 -0.500000
v 0.270598 -0.923880 -0.270598
v 0.382683 0.923880 -0.000000
v 0.707106 0.707107 -0.000000
v 0.923879 0.382683 -0.000000
v 1.000000 -0.000000 -0.000000
v 0.923879 -0.382684 -0.000000
v 0.707106 -0.707107 -0.000000
v 0.382683 -0.923880 -0.000000
v -0.000000 -1.000000 0.000000
v 0.270598 0.923880 0.270598
v 0.500000 0.707107 0.500000
v 0.653281 0.382683 0.653281
v 0.707106 -0.000000 0.707107
v 0.653281 -0.382684 0.653281
v 0.500000 -0.707107 0.500000
v 0.270598 -0.923880 0.270598
v -0.000000 0.923880 0.382683
v -0.000000 0.707107 0.707107
v -0.000000 0.382683 0.923879
v -0.000000 -0.000000 1.000000
v -0.000000 -0.382684 0.923879
v -0.000000 -0.707107 0.707107
v -0.000000 -0.923880 0.382683
v -0.270598 0.923880 0.270598
v -0.500000 0.707107 0.500000
v -0.653281 0.382683 0.653281
v -0.707107 -0.000000 0.707107
v -0.653281 -0.382684 0.653281
v -0.500000 -0.707107 0.500000
v -0.270598 -0.923880 0.270598
vt 0.539776 0.606658
vt 0.475078 0.608675
vt 0.455208 0.534001
vt 0.836008 0.819218
vt 0.798355 0.905235
vt 0.714831 0.795411
vt 0.552896 0.374961
vt 0.530719 0.530274
vt 0.445396 0.510092
vt 0.302588 0.455724
vt 0.219646 0.489908
vt 0.165655 0.402356
vt 0.386358 0.342794
vt 0.465886 0.366601
vt 0.232045 0.341332
vt 0.294321 0.262903
vt 0.165655 0.118057
vt 0.224130 0.045189
vt 0.074674 0.299935
vt 0.113173 0.207512
vt 0.343002 0.179009
vt 0.279696 0.000000
vt 0.105258 0.436684
vt 0.056020 0.381254
vt 0.790805 0.759782
vt 0.714831 0.640098
vt 0.074720 0.510090
vt 0.095210 0.653582
vt 0.015682 0.677388
vt 0.015606 0.132654
vt 0.060049 0.037032
vt 0.429330 0.668828
vt 0.429330 0.751881
vt 0.370676 0.798611
vt 0.798355 0.530274
vt 0.836008 0.616291
vt 0.160042 0.489908
vt 0.182220 0.645222
vt 0.000000 0.242641
vt 0.263467 0.653582
vt 0.263467 0.856509
vt 0.182220 0.864869
vt 0.475078 0.809182
vt 0.455208 0.904490
vt 0.916476 0.530274
vt 0.899935 0.616291
vt 0.095210 0.856509
vt 0.326580 0.677388
vt 0.326580 0.832702
vt 1.000000 0.640098
vt 0.945138 0.675727
vt 0.697256 0.213722
vt 0.818281 0.185260
vt 0.824796 0.296923
vt 0.574755 0.900763
vt 0.604385 0.971142
vt 0.015682 0.832702
vt 0.074720 1.000000
vt 0.712983 0.107290
vt 0.824796 0.080995
vt 0.539776 0.807165
vt 0.843346 0.000000
vt 0.964371 0.000000
vt 0.982922 0.080995
vt 0.982922 0.296923
vt 0.964371 0.398982
vt 0.585525 0.747012
vt 0.659287 0.789614
vt 0.843346 0.398982
vt 0.936608 0.475901
vt 0.989437 0.185260
vt 0.370676 0.077657
vt 0.445396 0.020182
vt 0.465886 0.163674
vt 0.530719 0.000000
vt 0.613653 0.020182
vt 0.634143 0.163674
vt 0.585525 0.663959
vt 0.659287 0.636153
vt 0.945138 0.759782
vt 1.000000 0.795411
vt 0.916476 0.905235
vt 0.552896 0.155314
vt 0.714831 0.625412
vt 0.504775 0.704598
vt 0.871678 0.717754
vt 0.790805 0.675727
vt 0.899935 0.819218
vt 0.697257 0.187480
vt 0.697256 0.342794
vt 0.634143 0.366601
vt 0.574755 0.530274
vt 0.370676 0.452617
vt 0.370676 0.386720
vt 0.370676 0.102421
vt 0.000000 0.567565
vt 0.370676 0.645150
vt 0.712983 0.323217
vt 0.448190 0.976011
vt 0.000000 0.942525
vt 0.871110 0.475901
vt 0.386358 0.187480
vt 0.714831 0.825919
vn -0.541400 0.810300 -0.224300
vn -0.541400 -0.810300 -0.224300
vn -0.908700 -0.180700 -0.376400
vn -0.786200 0.525300 -0.325600
vn -0.786200 -0.525300 -0.325600
vn -0.908700 0.180700 -0.376400
vn -0.376400 -0.180700 -0.908700
vn -0.325600 0.525300 -0.786200
vn -0.325600 -0.525300 -0.786200
vn -0.376400 0.180700 -0.908700
vn -0.224300 0.810300 -0.541400
vn -0.224300 -0.810300 -0.541400
vn 0.325600 -0.525300 -0.786200
vn 0.376400 0.180700 -0.908700
vn 0.224300 0.810300 -0.541400
vn 0.224300 -0.810300 -0.541400
vn 0.376400 -0.180700 -0.908700
vn 0.325600 0.525300 -0.786200
vn 0.908700 0.180700 -0.376400
vn 0.541400 0.810300 -0.224300
vn 0.541400 -0.810300 -0.224300
vn 0.908700 -0.180700 -0.376400
vn 0.786200 0.525300 -0.325600
vn 0.786200 -0.525300 -0.325600
vn 0.541400 -0.810300 0.224300
vn 0.908700 -0.180700 0.376400
vn 0.786200 0.525300 0.325600
vn 0.786200 -0.525300 0.325600
vn 0.908700 0.180700 0.376400
vn 0.541400 0.810300 0.224300
vn 0.325600 0.525300 0.786200
vn 0.325600 -0.525300 0.786200
vn 0.376400 0.180700 0.908700
vn 0.224300 0.810300 0.541400
vn 0.224300 -0.810300 0.541400
vn 0.376400 -0.180700 0.908700
vn -0.325600 -0.525300 0.786200
vn -0.376400 0.180700 0.908700
vn -0.224300 0.810300 0.541400
vn -0.224300 -0.810300 0.541400
vn -0.376400 -0.180700 0.908700
vn -0.325600 0.525300 0.786200
vn -0.194500 0.977600 -0.080500
vn -0.194500 -0.977600 -0.080500
vn -0.080500 0.977600 -0.194500
vn -0.080500 -0.977600 -0.194500
vn 0.080500 -0.977600 -0.194500
vn 0.080500 0.977600 -0.194500
vn 0.194500 0.977600 -0.080500
vn 0.194500 -0.977600 -0.080500
vn 0.194500 0.977600 0.080500
vn 0.194500 -0.977600 0.080500
vn 0.080500 0.977600 0.194500
vn 0.080500 -0.977600 0.194500
vn -0.080500 -0.977600 0.194500
vn -0.080500 0.977600 0.194500
vn -0.541400 0.810300 0.224300
vn -0.541400 -0.810300 0.224300
vn -0.908700 -0.180700 0.376400
vn -0.786200 0.525300 0.325600
vn -0.194500 0.977600 0.080500
vn -0.194500 -0.977600 0.080500
vn -0.786200 -0.525300 0.325600
vn -0.908700 0.180700 0.376400
usemtl None
s off
f 1/1/1 8/2/1 9/3/1
f 7/4/2 6/5/2 13/6/2
f 4/7/3 11/8/3 12/9/3
f 3/10/4 2/11/4 9/12/4
f 6/13/5 5/14/5 12/9/5
f 3/10/6 10/15/6 11/16/6
f 11/16/7 18/17/7 19/18/7
f 9/12/8 16/19/8 17/20/8
f 12/21/9 19/18/9 20/22/9
f 10/15/10 17/20/10 18/17/10
f 8/23/11 15/24/11 16/19/11
f 14/25/12 13/6/12 20/26/12
f 19/27/13 27/28/13 28/29/13
f 17/20/14 25/30/14 26/31/14
f 15/32/15 23/33/15 24/34/15
f 20/26/16 28/35/16 29/36/16
f 18/37/17 26/38/17 27/28/17
f 16/19/18 24/39/18 25/30/18
f 25/40/19 32/41/19 33/42/19
f 23/33/20 30/43/20 31/44/20
f 28/35/21 35/45/21 36/46/21
f 26/38/22 33/42/22 34/47/22
f 24/48/23 31/49/23 32/41/23
f 28/29/24 27/28/24 34/47/24
f 35/45/25 43/50/25 44/51/25
f 33/52/26 41/53/26 42/54/26
f 31/44/27 39/55/27 40/56/27
f 35/57/28 34/47/28 42/58/28
f 33/52/29 32/59/29 40/60/29
f 31/44/30 30/43/30 38/61/30
f 39/62/31 46/63/31 47/64/31
f 42/54/32 49/65/32 50/66/32
f 41/53/33 40/60/33 47/64/33
f 38/61/34 45/67/34 46/68/34
f 43/69/35 50/66/35 51/70/35
f 41/53/36 48/71/36 49/65/36
f 50/72/37 49/73/37 56/74/37
f 48/75/38 47/76/38 54/77/38
f 45/67/39 52/78/39 53/79/39
f 51/80/40 50/81/40 57/82/40
f 48/75/41 55/83/41 56/74/41
f 46/68/42 53/79/42 54/84/42
f 1/1/43 22/85/43 8/2/43
f 37/86/44 7/4/44 14/25/44
f 8/2/45 22/85/45 15/32/45
f 37/86/46 14/25/46 21/87/46
f 37/86/47 21/87/47 29/36/47
f 15/32/48 22/85/48 23/33/48
f 23/33/49 22/85/49 30/43/49
f 37/86/50 29/36/50 36/46/50
f 30/43/51 22/85/51 38/61/51
f 37/86/52 36/46/52 44/51/52
f 38/61/53 22/85/53 45/67/53
f 37/86/54 44/51/54 51/80/54
f 37/86/55 51/80/55 58/88/55
f 45/67/56 22/85/56 52/78/56
f 53/79/57 52/78/57 1/1/57
f 57/82/58 6/5/58 7/4/58
f 55/83/59 4/7/59 5/14/59
f 54/77/60 53/89/60 2/90/60
f 52/78/61 22/85/61 1/1/61
f 37/86/62 58/88/62 7/4/62
f 56/74/63 5/14/63 6/13/63
f 55/83/64 54/77/64 3/91/64
f 2/92/1 1/1/1 9/3/1
f 14/25/2 7/4/2 13/6/2
f 5/14/3 4/7/3 12/9/3
f 10/15/4 3/10/4 9/12/4
f 13/93/5 6/13/5 12/9/5
f 4/94/6 3/10/6 11/16/6
f 12/21/7 11/16/7 19/18/7
f 10/15/8 9/12/8 17/20/8
f 13/95/9 12/21/9 20/22/9
f 11/16/10 10/15/10 18/17/10
f 9/12/11 8/23/11 16/19/11
f 21/87/12 14/25/12 20/26/12
f 20/96/13 19/27/13 28/29/13
f 18/17/14 17/20/14 26/31/14
f 16/97/15 15/32/15 24/34/15
f 21/87/16 20/26/16 29/36/16
f 19/27/17 18/37/17 27/28/17
f 17/20/18 16/19/18 25/30/18
f 26/38/19 25/40/19 33/42/19
f 24/34/20 23/33/20 31/44/20
f 29/36/21 28/35/21 36/46/21
f 27/28/22 26/38/22 34/47/22
f 25/40/23 24/48/23 32/41/23
f 35/57/24 28/29/24 34/47/24
f 36/46/25 35/45/25 44/51/25
f 34/98/26 33/52/26 42/54/26
f 32/99/27 31/44/27 40/56/27
f 43/100/28 35/57/28 42/58/28
f 41/53/29 33/52/29 40/60/29
f 39/55/30 31/44/30 38/61/30
f 40/60/31 39/62/31 47/64/31
f 43/69/32 42/54/32 50/66/32
f 48/71/33 41/53/33 47/64/33
f 39/55/34 38/61/34 46/68/34
f 44/101/35 43/69/35 51/70/35
f 42/54/36 41/53/36 49/65/36
f 57/102/37 50/72/37 56/74/37
f 55/83/38 48/75/38 54/77/38
f 46/68/39 45/67/39 53/79/39
f 58/88/40 51/80/40 57/82/40
f 49/73/41 48/75/41 56/74/41
f 47/103/42 46/68/42 54/84/42
f 2/92/57 53/79/57 1/1/57
f 58/88/58 57/82/58 7/4/58
f 56/74/59 55/83/59 5/14/59
f 3/91/60 54/77/60 2/90/60
f 57/102/63 56/74/63 6/13/63
f 4/7/64 55/83/64 3/91/64
o Circle
v 0.000000 0.000000 -1.000000
v -0.195090 0.000000 -0.980785
v -0.382683 0.000000 -0.923880
v -0.555570 0.000000 -0.831470
v -0.707107 0.000000 -0.707107
v -0.831470 0.000000 -0.555570
v -0.923880 0.000000 -0.382683
v -0.980785 0.000000 -0.195090
v -1.000000 0.000000 -0.000000
v -0.980785 0.000000 0.195090
v -0.923880 0.000000 0.382683
v -0.831470 0.000000 0.555570
v -0.707107 0.000000 0.707107
v -0.555570 0.000000 0.831470
v -0.382683 0.000000 0.923880
v -0.195090 0.000000 0.980785
v 0.000000 0.000000 1.000000
v 0.195091 0.000000 0.980785
v 0.382684 0.000000 0.923879
v 0.555571 0.000000 0.831469
v 0.707107 0.000000 0.707106
v 0.831470 0.000000 0.555570
v 0.923880 0.000000 0.382683
v 0.980785 0.000000 0.195089
v 1.000000 0.000000 -0.000001
v 0.980785 0.000000 -0.195091
v 0.923879 0.000000 -0.382684
v 0.831469 0.000000 -0.555571
v 0.707106 0.000000 -0.707108
v 0.555569 0.000000 -0.831470
v 0.382682 0.000000 -0.923880
v 0.195089 0.000000 -0.980786
l 60 59
l 61 60
l 62 61
l 63 62
l 64 63
l 65 64
l 66 65
l 67 66
l 68 67
l 69 68
l 70 69
l 71 70
l 72 71
l 73 72
l 74 73
l 75 74
l 76 75
l 77 76
l 78 77
l 79 78
l 80 79
l 81 80
l 82 81
l 83 82
l 84 83
l 85 84
l 86 85
l 87 86
l 88 87
l 89 88
l 90 89
l 59 90
texture Sheild.png
