# Blender v2.76 (sub 0) OBJ File: 'ship.blend'
# www.blender.org
mtllib ship.mtl
o Cube
v -2.534565 1.000000 1.000000
v -2.534565 -1.000000 1.000000
v 1.000000 0.000000 1.000000
v 2.534565 1.000000 1.000000
v 0.250566 -0.278192 4.651270
v -1.000000 0.000000 1.000000
v -1.000000 1.000000 -0.999999
v 1.000000 -1.000000 -1.000000
v -1.000000 1.000000 1.000000
v 2.534565 -1.000000 1.000000
v 0.000000 -1.000000 1.000000
v 1.000000 1.000000 -1.000000
v -1.000000 -1.000000 -0.999999
v 0.999999 1.000000 1.000001
v -0.250566 -0.278192 4.651270
v 0.000000 1.000000 1.000000
v 0.000000 -1.000000 -1.000000
v -1.000000 0.000000 -1.000000
v 1.000000 0.000000 -1.000000
v 0.000000 1.000000 -1.000000
v 0.000000 0.000000 -3.331636
vt 0.260102 0.833680
vt 0.210463 0.882725
vt 0.257633 0.885114
vt 0.255074 0.939104
vt 0.304519 0.887291
vt 0.287124 0.185857
vt 0.366622 0.187625
vt 0.332489 0.000172
vt 0.316260 0.652530
vt 0.199180 0.520187
vt 0.000172 0.633187
vt 0.230861 0.023758
vt 0.441325 0.527464
vt 0.633247 0.652530
vt 0.320061 0.434852
vt 0.061677 0.348315
vt 0.597914 0.351770
vt 0.128341 0.736172
vt 0.256167 0.819470
vt 0.256167 0.652874
vt 0.583087 0.926748
vt 0.573081 0.833246
vt 0.487707 0.859059
vt 0.767246 0.656866
vt 0.633590 0.848185
vt 0.999828 0.652874
vt 0.364129 0.825402
vt 0.361956 0.925323
vt 0.446150 0.899346
vt 0.321515 0.294379
vt 0.276904 0.238000
vt 0.265847 0.285321
vt 0.370960 0.242566
vt 0.376400 0.289761
vt 0.633590 0.429499
vt 0.127998 0.736172
vt 0.000172 0.819470
vt 0.000172 0.652874
vt 0.758106 0.232671
vt 0.633590 0.429155
vt 0.991037 0.218185
vt 0.326543 0.188955
vt 0.365757 0.189193
vt 0.633590 0.000172
vt 0.430768 0.033289
vt 0.491740 0.901177
vt 0.454924 0.858330
vt 0.287814 0.186932
vt 0.066947 0.106008
vt 0.573650 0.125029
vn 0.676700 -0.676700 0.290200
vn 0.676700 0.676700 0.290200
vn -0.676700 0.676700 0.290200
vn -0.676700 -0.676700 0.290200
vn 0.000000 -1.000000 0.000000
vn 0.000000 0.000000 -1.000000
vn -0.000000 0.000000 1.000000
vn -0.793400 0.000000 0.608700
vn -0.847800 0.000000 -0.530300
vn 0.793400 0.000000 0.608700
vn 0.537700 0.825100 0.173200
vn 0.545300 -0.836800 0.048200
vn 0.847800 0.000000 -0.530300
vn -0.537700 0.825100 0.173200
vn -0.545300 -0.836800 0.048200
vn 0.000000 1.000000 0.000000
usemtl ShipSurface
s off
f 20/1/1 18/2/1 21/3/1
f 18/2/2 17/4/2 21/3/2
f 21/3/3 17/4/3 19/5/3
f 21/3/4 19/5/4 20/1/4
f 7/6/5 12/7/5 16/8/5
f 16/9/6 6/10/6 1/11/6
f 9/12/5 7/6/5 16/8/5
f 3/13/6 16/9/6 4/14/6
f 6/10/6 11/15/6 2/16/6
f 11/15/6 3/13/6 10/17/6
f 6/18/7 1/19/7 2/20/7
f 10/21/8 4/22/8 12/23/8
f 5/24/9 4/25/9 10/26/9
f 1/27/10 2/28/10 13/29/10
f 17/30/7 18/31/7 13/32/7
f 19/33/7 17/30/7 8/34/7
f 10/26/11 3/35/11 5/24/11
f 4/25/12 5/24/12 3/35/12
f 3/36/6 4/37/6 10/38/6
f 15/39/13 2/40/13 1/41/13
f 20/42/7 19/33/7 12/43/7
f 2/40/14 15/39/14 6/44/14
f 1/41/15 6/44/15 15/39/15
f 14/45/5 16/8/5 12/7/5
f 8/34/16 11/15/16 10/17/16
f 8/46/8 10/21/8 12/23/8
f 7/47/10 1/27/10 13/29/10
f 17/30/16 11/15/16 8/34/16
f 7/48/7 18/31/7 20/42/7
usemtl ShipSurface_NONE
f 7/6/5 9/12/5 1/49/5
f 11/15/6 16/9/6 3/13/6
f 6/10/6 16/9/6 11/15/6
f 17/30/16 13/32/16 11/15/16
f 2/16/16 11/15/16 13/32/16
f 12/7/5 4/50/5 14/45/5
l 8 13
texture shipColor.png
