# Blender v2.76 (sub 0) OBJ File: 'ship.blend'
# www.blender.org
mtllib ship.mtl
o Cube
v -2.534565 1.000000 1.000000
v -2.534565 -1.000000 1.000000
v 1.000000 0.000000 1.000000
v 2.534565 1.000000 1.000000
v 0.250566 -0.278192 4.651270
v -1.000000 0.000000 1.000000
v -1.000000 1.000000 -0.999999
v 1.000000 -1.000000 -1.000000
v -1.000000 1.000000 1.000000
v 2.534565 -1.000000 1.000000
v 0.000000 -1.000000 1.000000
v 1.000000 1.000000 -1.000000
v -1.000000 -1.000000 -0.999999
v 0.999999 1.000000 1.000001
v -0.250566 -0.278192 4.651270
v 0.000000 1.000000 1.000000
v 0.000000 -1.000000 -1.000000
v -1.000000 0.000000 -1.000000
v 1.000000 0.000000 -1.000000
v 0.000000 1.000000 -1.000000
v 0.000000 0.000000 -3.331636
vt 0.326543 0.188955
vt 0.276904 0.238000
vt 0.324075 0.240388
vt 0.321515 0.294379
vt 0.370960 0.242566
vt 0.287124 0.185857
vt 0.366622 0.187625
vt 0.332489 0.000172
vt 0.316260 0.652530
vt 0.199180 0.520187
vt 0.000172 0.633187
vt 0.230861 0.023758
vt 0.441325 0.527464
vt 0.633247 0.652530
vt 0.320061 0.434852
vt 0.061677 0.348315
vt 0.597914 0.351770
vt 0.128341 0.736172
vt 0.256167 0.819470
vt 0.256167 0.652874
vt 0.573650 0.125029
vt 0.767246 0.656866
vt 0.633590 0.848185
vt 0.999828 0.652874
vt 0.066947 0.106008
vt 0.265847 0.285321
vt 0.376400 0.289761
vt 0.633590 0.429499
vt 0.127998 0.736172
vt 0.000172 0.819470
vt 0.000172 0.652874
vt 0.758106 0.232671
vt 0.633590 0.429155
vt 0.991037 0.218185
vt 0.365757 0.189193
vt 0.633590 0.000172
vt 0.430768 0.033289
vt 0.287814 0.186932
vn 0.676700 -0.676700 0.290200
vn 0.676700 0.676700 0.290200
vn -0.676700 0.676700 0.290200
vn -0.676700 -0.676700 0.290200
vn 0.000000 -1.000000 0.000000
vn 0.000000 0.000000 -1.000000
vn -0.000000 0.000000 1.000000
vn -0.793400 0.000000 0.608700
vn -0.847800 0.000000 -0.530300
vn 0.793400 0.000000 0.608700
vn 0.537700 0.825100 0.173200
vn 0.545300 -0.836800 0.048200
vn 0.847800 0.000000 -0.530300
vn -0.537700 0.825100 0.173200
vn -0.545300 -0.836800 0.048200
vn 0.000000 1.000000 0.000000
usemtl ShipSurface
s off
f 20/1/1 18/2/1 21/3/1
f 18/2/2 17/4/2 21/3/2
f 21/3/3 17/4/3 19/5/3
f 21/3/4 19/5/4 20/1/4
f 7/6/5 12/7/5 16/8/5
f 16/9/6 6/10/6 1/11/6
f 9/12/5 7/6/5 16/8/5
f 3/13/6 16/9/6 4/14/6
f 6/10/6 11/15/6 2/16/6
f 11/15/6 3/13/6 10/17/6
f 6/18/7 1/19/7 2/20/7
f 10/17/8 4/21/8 12/7/8
f 5/22/9 4/23/9 10/24/9
f 1/25/10 2/16/10 13/26/10
f 17/4/7 18/2/7 13/26/7
f 19/5/7 17/4/7 8/27/7
f 10/24/11 3/28/11 5/22/11
f 4/23/12 5/22/12 3/28/12
f 3/29/6 4/30/6 10/31/6
f 15/32/13 2/33/13 1/34/13
f 20/1/7 19/5/7 12/35/7
f 2/33/14 15/32/14 6/36/14
f 1/34/15 6/36/15 15/32/15
f 14/37/5 16/8/5 12/7/5
f 8/27/16 11/15/16 10/17/16
f 8/27/8 10/17/8 12/7/8
f 7/6/10 1/25/10 13/26/10
f 17/4/16 11/15/16 8/27/16
f 7/38/7 18/2/7 20/1/7
usemtl ShipSurface_NONE
f 7/6/5 9/12/5 1/25/5
f 11/15/6 16/9/6 3/13/6
f 6/10/6 16/9/6 11/15/6
f 17/4/16 13/26/16 11/15/16
f 2/16/16 11/15/16 13/26/16
f 12/7/5 4/21/5 14/37/5
l 8 13
texture shipColor.png
